<svg width="18.000000" height="18.000000" viewBox="0 0 18 18" fill="none" xmlns="http://www.w3.org/2000/svg" xmlns:xlink="http://www.w3.org/1999/xlink">
	<desc>
			Created with Pixso.
	</desc>
	<defs>
		<clipPath id="clip4_89">
			<rect id="fi:heart" rx="-0.500000" width="17.000000" height="17.000000" transform="translate(0.500000 0.500000)" fill="white" fill-opacity="0"/>
		</clipPath>
	</defs>
	<rect id="fi:heart" rx="-0.500000" width="17.000000" height="17.000000" transform="translate(0.500000 0.500000)" fill="#FFFFFF" fill-opacity="0"/>
	<g clip-path="url(#clip4_89)">
		<path id="Vector" d="M14.29 2.56C13.79 2.35 13.25 2.24 12.71 2.24C12.17 2.24 11.63 2.35 11.13 2.56C10.63 2.77 10.17 3.07 9.79 3.45L9 4.25L8.2 3.45C7.43 2.68 6.38 2.24 5.28 2.24C4.19 2.24 3.14 2.68 2.37 3.45C1.59 4.23 1.16 5.28 1.16 6.37C1.16 7.46 1.59 8.51 2.37 9.29L3.16 10.08L9 15.92L14.83 10.08L15.63 9.29C16.01 8.9 16.31 8.45 16.52 7.95C16.73 7.45 16.83 6.91 16.83 6.37C16.83 5.83 16.73 5.29 16.52 4.79C16.31 4.29 16.01 3.84 15.63 3.45C15.24 3.07 14.79 2.77 14.29 2.56Z" stroke="#5C635A" stroke-opacity="1.000000" stroke-width="1.300000" stroke-linejoin="round"/>
	</g>
</svg>
