<svg width="18.000000" height="18.000000" viewBox="0 0 18 18" fill="none" xmlns="http://www.w3.org/2000/svg" xmlns:xlink="http://www.w3.org/1999/xlink">
	<desc>
			Created with Pixso.
	</desc>
	<defs>
		<clipPath id="clip4_58">
			<rect id="Category" rx="-0.500000" width="17.000000" height="17.000000" transform="translate(0.500000 0.500000)" fill="white" fill-opacity="0"/>
		</clipPath>
	</defs>
	<rect id="Category" rx="-0.500000" width="17.000000" height="17.000000" transform="translate(0.500000 0.500000)" fill="#FFFFFF" fill-opacity="0"/>
	<g clip-path="url(#clip4_58)">
		<path id="Combined-Shape" d="M4.68 9.75C7.73 9.75 7.87 10.78 7.87 12.93C7.87 14.01 7.87 14.78 7.42 15.34C6.9 15.99 5.95 16.12 4.68 16.12C3.42 16.12 2.47 15.99 1.95 15.34C1.5 14.78 1.5 14.01 1.5 12.95L2.06 12.93L1.5 12.93C1.5 10.78 1.63 9.75 4.68 9.75ZM12.93 9.75C15.98 9.75 16.12 10.78 16.12 12.93C16.12 14.01 16.12 14.78 15.67 15.34C15.15 15.99 14.2 16.12 12.93 16.12C11.67 16.12 10.72 15.99 10.2 15.34C9.75 14.78 9.75 14.01 9.75 12.95L10.31 12.93L9.75 12.93C9.75 10.78 9.88 9.75 12.93 9.75ZM4.84 10.87L4.68 10.87C2.73 10.87 2.63 11.01 2.62 12.65L2.62 13.29C2.62 13.95 2.65 14.42 2.82 14.63C3.02 14.88 3.61 15 4.68 15C5.75 15 6.34 14.88 6.54 14.63C6.75 14.38 6.75 13.78 6.75 12.95C6.75 11.08 6.75 10.88 4.84 10.87ZM13.09 10.87L12.93 10.87C10.98 10.87 10.88 11.01 10.87 12.65L10.87 13.29C10.87 13.95 10.9 14.42 11.07 14.63C11.27 14.88 11.86 15 12.93 15C14 15 14.59 14.88 14.79 14.63C15 14.38 15 13.78 15 12.95C15 11.08 15 10.88 13.09 10.87ZM4.68 1.5C7.73 1.5 7.87 2.53 7.87 4.68C7.87 5.76 7.87 6.53 7.42 7.09C6.9 7.74 5.95 7.87 4.68 7.87C3.42 7.87 2.47 7.74 1.95 7.09C1.5 6.53 1.5 5.76 1.5 4.7L2.06 4.68L1.5 4.68C1.5 2.53 1.63 1.5 4.68 1.5ZM12.93 1.5C15.98 1.5 16.12 2.53 16.12 4.68C16.12 5.76 16.12 6.53 15.67 7.09C15.15 7.74 14.2 7.87 12.93 7.87C11.67 7.87 10.72 7.74 10.2 7.09C9.75 6.53 9.75 5.76 9.75 4.7L10.31 4.68L9.75 4.68C9.75 2.53 9.88 1.5 12.93 1.5ZM4.84 2.62L4.68 2.62C2.73 2.62 2.63 2.76 2.62 4.4L2.62 5.04C2.62 5.7 2.65 6.17 2.82 6.38C3.02 6.63 3.61 6.75 4.68 6.75C5.75 6.75 6.34 6.63 6.54 6.38C6.75 6.13 6.75 5.53 6.75 4.7C6.75 2.83 6.75 2.63 4.84 2.62ZM13.09 2.62L12.93 2.62C10.98 2.62 10.88 2.76 10.87 4.4L10.87 5.04C10.87 5.7 10.9 6.17 11.07 6.38C11.27 6.63 11.86 6.75 12.93 6.75C14 6.75 14.59 6.63 14.79 6.38C15 6.13 15 5.53 15 4.7C15 2.83 15 2.63 13.09 2.62Z" fill="#152A16" fill-opacity="1.000000" fill-rule="evenodd"/>
	</g>
</svg>
