<svg width="18.000000" height="18.000000" viewBox="0 0 18 18" fill="none" xmlns="http://www.w3.org/2000/svg" xmlns:xlink="http://www.w3.org/1999/xlink">
	<desc>
			Created with Pixso.
	</desc>
	<defs>
		<clipPath id="clip4_74">
			<rect id="Search" rx="-0.500000" width="17.000000" height="17.000000" transform="translate(0.500000 0.500000)" fill="white" fill-opacity="0"/>
		</clipPath>
	</defs>
	<rect id="Search" rx="-0.500000" width="17.000000" height="17.000000" transform="translate(0.500000 0.500000)" fill="#FFFFFF" fill-opacity="0"/>
	<g clip-path="url(#clip4_74)">
		<path id="Combined-Shape" d="M8.8 1.5C12.83 1.5 16.1 4.77 16.1 8.8C16.1 10.7 15.37 12.43 14.18 13.73L16.53 16.08C16.75 16.3 16.75 16.65 16.53 16.87C16.42 16.98 16.27 17.04 16.13 17.04C15.99 17.04 15.84 16.98 15.73 16.87L13.36 14.5C12.11 15.5 10.52 16.1 8.8 16.1C4.77 16.1 1.5 12.83 1.5 8.8C1.5 4.77 4.77 1.5 8.8 1.5ZM8.8 2.62C5.39 2.62 2.62 5.39 2.62 8.8C2.62 12.21 5.39 14.98 8.8 14.98C12.21 14.98 14.98 12.21 14.98 8.8C14.98 5.39 12.21 2.62 8.8 2.62Z" fill="#5C635A" fill-opacity="1.000000" fill-rule="evenodd"/>
	</g>
</svg>
